<svg id="visual" viewBox="0 0 2700 1800" width="2700" height="1800" xmlns="http://www.w3.org/2000/svg" xmlns:xlink="http://www.w3.org/1999/xlink" version="1.1"><rect x="0" y="0" width="2700" height="1800" fill="#0e1823"></rect><defs><linearGradient id="grad1_0" x1="33.3%" y1="0%" x2="100%" y2="100%"><stop offset="20%" stop-color="#00adb5" stop-opacity="1"></stop><stop offset="80%" stop-color="#00adb5" stop-opacity="1"></stop></linearGradient></defs><defs><linearGradient id="grad1_1" x1="33.3%" y1="0%" x2="100%" y2="100%"><stop offset="20%" stop-color="#00adb5" stop-opacity="1"></stop><stop offset="80%" stop-color="#145c72" stop-opacity="1"></stop></linearGradient></defs><defs><linearGradient id="grad1_2" x1="33.3%" y1="0%" x2="100%" y2="100%"><stop offset="20%" stop-color="#0e1823" stop-opacity="1"></stop><stop offset="80%" stop-color="#145c72" stop-opacity="1"></stop></linearGradient></defs><defs><linearGradient id="grad2_0" x1="0%" y1="0%" x2="66.7%" y2="100%"><stop offset="20%" stop-color="#00adb5" stop-opacity="1"></stop><stop offset="80%" stop-color="#00adb5" stop-opacity="1"></stop></linearGradient></defs><defs><linearGradient id="grad2_1" x1="0%" y1="0%" x2="66.7%" y2="100%"><stop offset="20%" stop-color="#145c72" stop-opacity="1"></stop><stop offset="80%" stop-color="#00adb5" stop-opacity="1"></stop></linearGradient></defs><defs><linearGradient id="grad2_2" x1="0%" y1="0%" x2="66.7%" y2="100%"><stop offset="20%" stop-color="#145c72" stop-opacity="1"></stop><stop offset="80%" stop-color="#0e1823" stop-opacity="1"></stop></linearGradient></defs><g transform="translate(2700, 0)"><path d="M0 1298C-136 1171.6 -272 1045.3 -400.7 967.3C-529.3 889.3 -650.7 859.8 -796.2 796.2C-941.8 732.6 -1111.5 635.1 -1199.2 496.7C-1286.9 358.4 -1292.4 179.2 -1298 0L0 0Z" fill="#17384b"></path><path d="M0 865.3C-90.7 781.1 -181.3 696.8 -267.1 644.9C-352.9 592.9 -433.8 573.2 -530.8 530.8C-627.8 488.4 -741 423.4 -799.5 331.1C-857.9 238.9 -861.6 119.5 -865.3 0L0 0Z" fill="#018497"></path><path d="M0 432.7C-45.3 390.5 -90.7 348.4 -133.6 322.4C-176.4 296.4 -216.9 286.6 -265.4 265.4C-313.9 244.2 -370.5 211.7 -399.7 165.6C-429 119.5 -430.8 59.7 -432.7 0L0 0Z" fill="#00adb5"></path></g><g transform="translate(0, 1800)"><path d="M0 -1298C167.8 -1247.5 335.5 -1196.9 458.8 -1107.7C582.1 -1018.5 661 -890.6 792 -792C923 -693.3 1106.2 -623.8 1199.2 -496.7C1292.2 -369.6 1295.1 -184.8 1298 0L0 0Z" fill="#17384b"></path><path d="M0 -865.3C111.8 -831.6 223.7 -798 305.9 -738.5C388.1 -679 440.6 -593.8 528 -528C615.3 -462.2 737.4 -415.9 799.5 -331.1C861.5 -246.4 863.4 -123.2 865.3 0L0 0Z" fill="#018497"></path><path d="M0 -432.7C55.9 -415.8 111.8 -399 152.9 -369.2C194 -339.5 220.3 -296.9 264 -264C307.7 -231.1 368.7 -207.9 399.7 -165.6C430.7 -123.2 431.7 -61.6 432.7 0L0 0Z" fill="#00adb5"></path></g></svg>