<svg id="visual" viewBox="0 0 4250 2250" width="4250" height="2250" xmlns="http://www.w3.org/2000/svg" xmlns:xlink="http://www.w3.org/1999/xlink" version="1.1"><rect x="0" y="0" width="4250" height="2250" fill="#121212"></rect><defs><linearGradient id="grad1_0" x1="47.1%" y1="0%" x2="100%" y2="100%"><stop offset="12.222222222222225%" stop-color="#fbae3c" stop-opacity="1"></stop><stop offset="87.77777777777779%" stop-color="#fbae3c" stop-opacity="1"></stop></linearGradient></defs><defs><linearGradient id="grad1_1" x1="47.1%" y1="0%" x2="100%" y2="100%"><stop offset="12.222222222222225%" stop-color="#fbae3c" stop-opacity="1"></stop><stop offset="87.77777777777779%" stop-color="#7e5a2a" stop-opacity="1"></stop></linearGradient></defs><defs><linearGradient id="grad1_2" x1="47.1%" y1="0%" x2="100%" y2="100%"><stop offset="12.222222222222225%" stop-color="#121212" stop-opacity="1"></stop><stop offset="87.77777777777779%" stop-color="#7e5a2a" stop-opacity="1"></stop></linearGradient></defs><defs><linearGradient id="grad2_0" x1="0%" y1="0%" x2="52.9%" y2="100%"><stop offset="12.222222222222225%" stop-color="#fbae3c" stop-opacity="1"></stop><stop offset="87.77777777777779%" stop-color="#fbae3c" stop-opacity="1"></stop></linearGradient></defs><defs><linearGradient id="grad2_1" x1="0%" y1="0%" x2="52.9%" y2="100%"><stop offset="12.222222222222225%" stop-color="#7e5a2a" stop-opacity="1"></stop><stop offset="87.77777777777779%" stop-color="#fbae3c" stop-opacity="1"></stop></linearGradient></defs><defs><linearGradient id="grad2_2" x1="0%" y1="0%" x2="52.9%" y2="100%"><stop offset="12.222222222222225%" stop-color="#7e5a2a" stop-opacity="1"></stop><stop offset="87.77777777777779%" stop-color="#121212" stop-opacity="1"></stop></linearGradient></defs><g transform="translate(4250, 0)"><path d="M0 1912.5C-266.3 1901.1 -532.5 1889.7 -731.9 1766.9C-931.2 1644.2 -1063.7 1410 -1222.6 1222.6C-1381.4 1035.1 -1566.7 894.4 -1686.1 698.4C-1805.5 502.4 -1859 251.2 -1912.5 0L0 0Z" fill="#46341f"></path><path d="M0 1275C-177.5 1267.4 -355 1259.8 -487.9 1177.9C-620.8 1096.1 -709.2 940 -815.1 815.1C-921 690.1 -1044.5 596.3 -1124.1 465.6C-1203.6 334.9 -1239.3 167.5 -1275 0L0 0Z" fill="#bb8333"></path><path d="M0 637.5C-88.8 633.7 -177.5 629.9 -244 589C-310.4 548.1 -354.6 470 -407.5 407.5C-460.5 345 -522.2 298.1 -562 232.8C-601.8 167.5 -619.7 83.7 -637.5 0L0 0Z" fill="#fbae3c"></path></g><g transform="translate(0, 2250)"><path d="M0 -1912.5C240.1 -1880.6 480.2 -1848.7 731.9 -1766.9C983.6 -1685.1 1246.9 -1553.4 1337.8 -1337.8C1428.8 -1122.3 1347.4 -822.8 1414.5 -585.9C1481.5 -348.9 1697 -174.5 1912.5 0L0 0Z" fill="#46341f"></path><path d="M0 -1275C160.1 -1253.7 320.1 -1232.5 487.9 -1177.9C655.7 -1123.4 831.3 -1035.6 891.9 -891.9C952.5 -748.2 898.3 -548.6 943 -390.6C987.7 -232.6 1131.3 -116.3 1275 0L0 0Z" fill="#bb8333"></path><path d="M0 -637.5C80 -626.9 160.1 -616.2 244 -589C327.9 -561.7 415.6 -517.8 445.9 -445.9C476.3 -374.1 449.1 -274.3 471.5 -195.3C493.8 -116.3 565.7 -58.2 637.5 0L0 0Z" fill="#fbae3c"></path></g></svg>